# xmcd
#
# Track frame offsets:
#	150
#	11110
#	22691
#	33608
#	44313
#	54011
#	63147
#	73976
#	83719
#	93625
#	104922
#	116270
#
# Disc length: 1694 seconds
#
# Revision: 1
# Processed by: cddbd v1.5.2PL0 Copyright (c) Steve Scherf et al.
# Submitted via: audiograbber 1.83.01
#
DISCID=97069c0c
DTITLE=Porter Wagoner - The Bottom Of The Bottle
DYEAR=1968
DGENRE=Country
TTITLE0=Wind
TTITLE1=Daddy And The Wine
TTITLE2=Swinging Doors
TTITLE3=The Bottom Of The Bottle
TTITLE4=In The Shadows Of The Wine
TTITLE5=She Burned The Little Roadhouse Tavern Down
TTITLE6=The Bottle Let Me Down
TTITLE7=One Dime For Wine
TTITLE8=Wine
TTITLE9=Turn The Jukebox Up Louder
TTITLE10=I Threw Away The Rose
TTITLE11=Bottle, Bottle
EXTD=
EXTT0=
EXTT1=
EXTT2=
EXTT3=
EXTT4=
EXTT5=
EXTT6=
EXTT7=
EXTT8=
EXTT9=
EXTT10=
EXTT11=
PLAYORDER=
